<?xml version="1.0" encoding="utf-8"?>
<!-- Generator: Adobe Illustrator 27.0.0, SVG Export Plug-In . SVG Version: 6.00 Build 0)  -->
<svg version="1.1" id="Capa_1" xmlns="http://www.w3.org/2000/svg" xmlns:xlink="http://www.w3.org/1999/xlink" x="0px" y="0px"
	 viewBox="0 0 500 500" style="enable-background:new 0 0 500 500;" xml:space="preserve">
<style type="text/css">
	.st0{fill:#FBFFFF;}
	.st1{fill:#6C98C7;}
	.st2{fill:#FFF8FF;}
	.st3{fill:#F8C9BF;}
	.st4{fill:#FFFFFF;}
	.st5{clip-path:url(#SVGID_00000040569849934492531890000014430868490210732712_);}
	.st6{fill:none;stroke:#6C98C7;stroke-width:2.7588;stroke-linecap:round;stroke-linejoin:round;stroke-miterlimit:10;}
	.st7{fill:#2B2C52;}
	.st8{fill:#ADADAD;}
	.st9{fill:#F9E2D9;}
	.st10{fill:none;stroke:#2B2C52;stroke-width:1.0617;stroke-miterlimit:10;}
	.st11{fill:none;stroke:#2B2C52;stroke-width:2.1233;stroke-miterlimit:10;}
	.st12{fill:#05ACED;}
	.st13{fill:#E9018B;}
	.st14{fill:#FAEF04;}
	.st15{fill:#5771A3;}
	.st16{fill:#89BDE8;}
	.st17{fill:#070707;}
	.st18{fill:none;stroke:#FFFFFF;stroke-width:0.959;stroke-linecap:round;stroke-linejoin:round;stroke-miterlimit:10;}
	.st19{fill:#14163C;}
	.st20{fill:none;stroke:#7C7C7C;stroke-width:1.1102;stroke-linecap:round;stroke-linejoin:round;stroke-miterlimit:10;}
	.st21{fill:none;stroke:#6C98C7;stroke-width:0.984;stroke-miterlimit:10;}
	.st22{fill:#F7A299;}
	.st23{fill:#0B0B0C;}
	.st24{fill:#3C4167;}
	.st25{fill:#9097B9;}
	.st26{fill:none;stroke:#101010;stroke-width:0.4143;stroke-linecap:round;stroke-linejoin:round;stroke-miterlimit:10;}
	.st27{fill:#1D0300;}
	.st28{fill:none;stroke:#1D0300;stroke-width:0.6045;stroke-linecap:round;stroke-linejoin:round;stroke-miterlimit:10;}
	.st29{fill:#191829;}
	.st30{fill:none;stroke:#1D0300;stroke-width:0.5455;stroke-linecap:round;stroke-linejoin:round;stroke-miterlimit:10;}
	.st31{fill:none;stroke:#2B2C52;stroke-width:1.476;stroke-miterlimit:10;}
</style>
<g>
	<g>
		<g>
			
				<ellipse transform="matrix(0.9131 -0.4077 0.4077 0.9131 -25.0802 169.0131)" class="st0" cx="384" cy="143.4" rx="37.1" ry="37.1"/>
			<g>
				<path class="st1" d="M400.2,154.9h-4.6v-1.5h4.6c0.4,0,0.8-0.3,0.8-0.8v-17.7c0-0.4-0.3-0.8-0.8-0.8h-32.4
					c-0.4,0-0.8,0.3-0.8,0.8v17.7c0,0.4,0.3,0.8,0.8,0.8h4.6v1.5h-4.6c-1.3,0-2.3-1-2.3-2.3v-17.7c0-1.3,1-2.3,2.3-2.3h32.4
					c1.3,0,2.3,1,2.3,2.3v17.7C402.5,153.9,401.5,154.9,400.2,154.9z"/>
				<path class="st1" d="M396.3,161.8h-24.7v-13.1h24.7V161.8z M373.2,160.3h21.6v-10h-21.6V160.3z"/>
				<path class="st1" d="M396.3,134.1h-24.7v-9.2h24.7V134.1z M373.2,132.6h21.6v-6.2h-21.6V132.6z"/>
				<rect x="370.1" y="148.7" class="st1" width="27.7" height="1.5"/>
				<rect x="391.7" y="136.4" class="st1" width="2.3" height="1.5"/>
				<rect x="396.3" y="136.4" class="st1" width="2.3" height="1.5"/>
				<rect x="375.5" y="152.6" class="st1" width="16.9" height="1.5"/>
				<rect x="375.5" y="157.2" class="st1" width="16.9" height="1.5"/>
			</g>
		</g>
		<g>
			<circle class="st1" cx="430.2" cy="121.8" r="21.4"/>
			<g>
				<path class="st2" d="M431,130.4c-5.2,0-9.4-4.2-9.4-9.4c0-5.2,4.2-9.4,9.4-9.4c5.2,0,9.4,4.2,9.4,9.4
					C440.4,126.2,436.2,130.4,431,130.4z M431,112.7c-4.6,0-8.3,3.7-8.3,8.3s3.7,8.3,8.3,8.3c4.6,0,8.3-3.7,8.3-8.3
					S435.6,112.7,431,112.7z"/>
				<g>
					<path class="st2" d="M431,133.1c-0.3,0-0.5-0.2-0.5-0.5v-23c0-0.3,0.2-0.5,0.5-0.5c0.3,0,0.5,0.2,0.5,0.5v23
						C431.6,132.8,431.3,133.1,431,133.1z"/>
					<path class="st2" d="M442.5,121.6h-23c-0.3,0-0.5-0.2-0.5-0.5c0-0.3,0.2-0.5,0.5-0.5h23c0.3,0,0.5,0.2,0.5,0.5
						C443.1,121.3,442.8,121.6,442.5,121.6z"/>
				</g>
			</g>
		</g>
	</g>
	<g>
		<path class="st3" d="M317.7,158.9h-68c-1.4,0-2.5-1.1-2.5-2.5l0,0c0-1.4,1.1-2.5,2.5-2.5h68c1.4,0,2.5,1.1,2.5,2.5l0,0
			C320.2,157.7,319.1,158.9,317.7,158.9z"/>
		<path class="st3" d="M486.3,217.6h-33c-1.4,0-2.5-1.1-2.5-2.5l0,0c0-1.4,1.1-2.5,2.5-2.5h33c1.4,0,2.5,1.1,2.5,2.5l0,0
			C488.8,216.4,487.7,217.6,486.3,217.6z"/>
		<path class="st3" d="M30.5,309.8H4.8c-1.4,0-2.5-1.1-2.5-2.5l0,0c0-1.4,1.1-2.5,2.5-2.5h25.8c1.4,0,2.5,1.1,2.5,2.5l0,0
			C33.1,308.6,31.9,309.8,30.5,309.8z"/>
		<path class="st1" d="M476.1,253.9h-2.7c-1.4,0-2.6-1.2-2.6-2.6v-2.4c0-1.4,1.2-2.6,2.6-2.6h2.7c1.4,0,2.6,1.2,2.6,2.6v2.4
			C478.8,252.7,477.6,253.9,476.1,253.9z"/>
		<path class="st1" d="M286.2,132.7h-2.7c-1.4,0-2.6-1.2-2.6-2.6v-2.4c0-1.4,1.2-2.6,2.6-2.6h2.7c1.4,0,2.6,1.2,2.6,2.6v2.4
			C288.8,131.5,287.6,132.7,286.2,132.7z"/>
		<path class="st1" d="M32.7,268.6H30c-1.4,0-2.6-1.2-2.6-2.6v-2.4c0-1.4,1.2-2.6,2.6-2.6h2.7c1.4,0,2.6,1.2,2.6,2.6v2.4
			C35.3,267.5,34.1,268.6,32.7,268.6z"/>
	</g>
	<g>
		<g>
			
				<rect x="18.3" y="129.5" transform="matrix(-1 -1.224647e-16 1.224647e-16 -1 69.6202 292.3945)" class="st1" width="33.1" height="33.4"/>
			<polygon class="st1" points="51.4,157.5 51.4,169.1 41.5,157.5 			"/>
		</g>
		<g>
			<path class="st4" d="M37.5,153.5c0,1.5-1.2,2.7-2.7,2.7c-1.5,0-2.7-1.2-2.7-2.7s1.2-2.7,2.7-2.7C36.3,150.8,37.5,152,37.5,153.5z
				"/>
			<g>
				<defs>
					<polyline id="SVGID_1_" points="34.8,153.5 55.4,133.9 34.8,133.9 14.2,133.9 34.8,153.5 					"/>
				</defs>
				<clipPath id="SVGID_00000003791230113474267800000012177050887091570850_">
					<use xlink:href="#SVGID_1_"  style="overflow:visible;"/>
				</clipPath>
				<g style="clip-path:url(#SVGID_00000003791230113474267800000012177050887091570850_);">
					<g>
						<path class="st4" d="M34.8,162.6c-5,0-9.1-4.1-9.1-9.1c0-5,4.1-9.1,9.1-9.1c5,0,9.1,4.1,9.1,9.1
							C43.9,158.5,39.8,162.6,34.8,162.6z M34.8,146.9c-3.6,0-6.6,3-6.6,6.6c0,3.6,3,6.6,6.6,6.6c3.6,0,6.6-3,6.6-6.6
							C41.4,149.8,38.4,146.9,34.8,146.9z"/>
					</g>
					<g>
						<path class="st4" d="M34.8,168.6c-8.3,0-15.1-6.8-15.1-15.1c0-8.3,6.8-15.1,15.1-15.1c8.3,0,15.1,6.8,15.1,15.1
							C49.9,161.8,43.2,168.6,34.8,168.6z M34.8,140.9c-6.9,0-12.6,5.6-12.6,12.6c0,6.9,5.7,12.6,12.6,12.6
							c6.9,0,12.6-5.6,12.6-12.6C47.4,146.5,41.8,140.9,34.8,140.9z"/>
					</g>
				</g>
			</g>
		</g>
	</g>
	<g>
		<g>
			<circle class="st0" cx="155.2" cy="124.3" r="30.5"/>
		</g>
		<g>
			<path class="st6" d="M167.5,119.5c0.5,1.4,0.8,3,0.8,4.6c0,7.3-5.9,13.1-13.1,13.1c-7.3,0-13.1-5.9-13.1-13.1
				c0-7.3,5.9-13.1,13.1-13.1c2.3,0,4.5,0.6,6.4,1.7"/>
			<polyline class="st6" points="153.2,118.7 158,123.5 167.3,112.6 			"/>
		</g>
	</g>
</g>
<g>
	<path class="st3" d="M38.2,385.8c0,0,4.2-171.8,216.3-171.8s213.8,172.6,213.8,172.6L38.2,385.8z"/>
	<g>
		<g>
			<g>
				<g>
					<g>
						<g>
							<rect x="380.4" y="283" class="st1" width="20.2" height="103.7"/>
							<path class="st1" d="M405.8,375.7h-30.1c-6,0-10.9,4.9-10.9,10.9l0,0h51.9l0,0C416.7,380.6,411.8,375.7,405.8,375.7z"/>
							<rect x="374.6" y="283" class="st7" width="20.2" height="103.7"/>
							<path class="st7" d="M400,375.7H370c-6,0-10.9,4.9-10.9,10.9l0,0h51.9l0,0C410.9,380.6,406.1,375.7,400,375.7z"/>
						</g>
						<polygon class="st8" points="374.6,283 374.6,296.4 400.6,287.7 400.6,283 						"/>
					</g>
					<g>
						<g>
							<rect x="167.7" y="283" class="st1" width="20.2" height="103.7"/>
							<path class="st1" d="M193.1,375.7H163c-6,0-10.9,4.9-10.9,10.9l0,0H204l0,0C204,380.6,199.1,375.7,193.1,375.7z"/>
							<rect x="161.9" y="283" class="st7" width="20.2" height="103.7"/>
							<path class="st7" d="M187.3,375.7h-30.1c-6,0-10.9,4.9-10.9,10.9l0,0h51.9l0,0C198.2,380.6,193.3,375.7,187.3,375.7z"/>
						</g>
						<polygon class="st8" points="161.9,283 161.9,296.4 187.9,287.7 187.9,283 						"/>
					</g>
				</g>
				<g>
					<g>
						<path class="st7" d="M360.2,200.4h52.7c4.3,0,8.2,2.3,10.3,6l15.4,27.7c1.9,3.4-0.5,7.6-4.4,7.6h-56.1L360.2,200.4z"/>
						<polygon class="st8" points="385.9,200.4 409.1,241.7 390.5,241.7 368,200.4 						"/>
						<g>
							<polygon class="st1" points="397.5,210.5 400.1,215.1 414,215.1 411.3,210.5 							"/>
							<polygon class="st9" points="400.9,216.6 401.7,218 415.6,218 414.8,216.6 							"/>
							<polygon class="st9" points="402.3,219.1 403.1,220.5 417,220.5 416.2,219.1 							"/>
							<polygon class="st9" points="403.5,221.6 404.3,222.9 418.2,222.9 417.3,221.6 							"/>
							<polygon class="st9" points="407,227.5 407.8,228.9 421.7,228.9 420.8,227.5 							"/>
							<polygon class="st9" points="408.4,230 409.2,231.4 423.1,231.4 422.2,230 							"/>
							<polygon class="st1" points="404.9,224.1 406.1,226.2 427.5,226.2 426.2,224.1 							"/>
							<polygon class="st1" points="414,210.5 421,222.7 425.8,222.7 418.7,210.5 							"/>
							<polygon class="st1" points="423.1,227.5 425.4,231.4 430.2,231.4 427.8,227.5 							"/>
						</g>
					</g>
					<g>
						<path class="st1" d="M162.2,283h248.6v-15.7c0-5.8-1.4-11.5-4.2-16.6l-23.2-43.1c-2.4-4.4-7-7.2-12-7.2H162.2V283z"/>
						<path class="st7" d="M143.2,283h60.3v-15.7c0-5.8-1.4-11.5-4.2-16.6L176,207.3c-2.3-4.3-6.8-7-11.6-7h-21.2V283z"/>
						<g>
							<polyline class="st10" points="230.3,239.1 216.4,214.4 349.1,214.4 366.8,244.1 							"/>
							<line class="st11" x1="222.8" y1="225.8" x2="356.1" y2="225.8"/>
							<polygon class="st7" points="227.9,234.9 361.3,234.9 366.8,244.1 230.3,239.1 							"/>
						</g>
					</g>
				</g>
				<g>
					<g>
						<g>
							<rect x="214.8" y="171.1" class="st1" width="6.4" height="29.2"/>
							<rect x="198.8" y="171.1" class="st7" width="16" height="29.2"/>
						</g>
						<g>
							<rect x="203.7" y="171.1" class="st1" width="6.4" height="29.2"/>
							<rect x="187.8" y="171.1" class="st7" width="16" height="29.2"/>
						</g>
						<g>
							<rect x="192.5" y="171.1" class="st1" width="6.4" height="29.2"/>
							<rect x="176.6" y="171.1" class="st7" width="16" height="29.2"/>
						</g>
						<g>
							<rect x="180.6" y="171.1" class="st1" width="6.4" height="29.2"/>
							<rect x="164.7" y="171.1" class="st7" width="16" height="29.2"/>
						</g>
						<g>
							<path class="st0" d="M185.5,175.7c0,0.9-0.7,1.7-1.7,1.7c-0.9,0-1.7-0.7-1.7-1.7c0-0.9,0.7-1.7,1.7-1.7
								C184.7,174,185.5,174.8,185.5,175.7z"/>
							<path class="st0" d="M197.4,175.7c0,0.9-0.7,1.7-1.7,1.7c-0.9,0-1.7-0.7-1.7-1.7c0-0.9,0.7-1.7,1.7-1.7
								C196.7,174,197.4,174.8,197.4,175.7z"/>
							<path class="st0" d="M208.6,175.7c0,0.9-0.7,1.7-1.7,1.7c-0.9,0-1.7-0.7-1.7-1.7c0-0.9,0.7-1.7,1.7-1.7
								C207.8,174,208.6,174.8,208.6,175.7z"/>
							<circle class="st0" cx="217.9" cy="175.7" r="1.7"/>
						</g>
					</g>
					<rect x="164.7" y="196.1" class="st8" width="56.5" height="4.2"/>
				</g>
			</g>
			<g>
				<g>
					<path class="st4" d="M242.3,342.8L242.3,342.8c0,13.7,11.1,24.9,24.9,24.9h54.6v-24.9H242.3z"/>
					<path class="st0" d="M230.3,239.1H357c0,0,17.6,1.4,17.6,24c0,22.6,0,79.7,0,79.7H242.3v-78.6c0-7.4-2.7-14.6-7.6-20.1
						L230.3,239.1z"/>
					<g>
						<circle class="st12" cx="312.1" cy="284.2" r="21.2"/>
						<circle class="st13" cx="298.2" cy="308" r="21.2"/>
						<circle class="st14" cx="328.3" cy="308" r="21.2"/>
					</g>
				</g>
				<g>
					<path class="st15" d="M312.5,342.8c0,0-11.7-1-11.7,11.3c0,12.4-10,13.5-10,13.5h31.1v-24.9H312.5z"/>
					<path class="st16" d="M312.5,342.8h133.1c0,0,12.4,0.7,12.4,14.3v16.1H321.8v-17C321.8,356.3,321.7,342.8,312.5,342.8z"/>
					<path class="st4" d="M488.3,373.3c0,0,1.6,10-14.7,13.2H344.5l15.7-13.2v-13.7h128.2L488.3,373.3z"/>
					<path class="st16" d="M321.8,373.3L321.8,373.3c0,7.3,5.9,13.2,13.2,13.2h11.9c7.3,0,13.2-5.9,13.2-13.2v0H321.8z"/>
				</g>
			</g>
		</g>
		<g>
			<g>
				<g>
					<g>
						<g>
							<polygon class="st17" points="57.1,371.9 68.3,371.9 86.8,381.9 54.9,381.5 							"/>
							<g>
								<polygon class="st4" points="54.8,385.7 54.9,381.5 86.8,381.9 86.7,386.1 								"/>
							</g>
							<line class="st18" x1="76" y1="375.6" x2="72.4" y2="376.6"/>
							<line class="st18" x1="72.4" y1="373.8" x2="68.8" y2="374.8"/>
						</g>
						<polygon class="st0" points="71.1,356.1 59.7,356.1 57.1,371.9 68.5,371.9 						"/>
					</g>
					<g>
						<g>
							<polygon class="st17" points="91.7,372.3 103,372.3 121.5,382.2 89.6,381.8 							"/>
							<g>
								<polygon class="st4" points="89.5,386 89.6,381.8 121.5,382.2 121.4,386.4 								"/>
							</g>
							<line class="st18" x1="110.7" y1="375.9" x2="107" y2="377"/>
							<line class="st18" x1="107.1" y1="374.1" x2="103.4" y2="375.1"/>
						</g>
						<polygon class="st0" points="103,356.5 91.5,356.5 91.7,372.3 103.2,372.3 						"/>
					</g>
					<g>
						<path class="st19" d="M101.4,237.3c0,0,0.9,2,2.7,20.6c0.4,3.8,0.6,9.2,0.5,13l0.9,95.5l-16.4-0.2L86,265.4L72.6,367.3
							l-17.1-0.6l10.7-126.5l7.7-1.3L101.4,237.3z"/>
						<line class="st20" x1="86" y1="265.4" x2="93" y2="262.1"/>
					</g>
				</g>
				<g>
					<g>
						<g>
							<g>
								<g>
									<path class="st0" d="M100.4,187.5c0,0,9.6,5.7,11.5,21.2l-13.7,7.5L100.4,187.5z"/>
								</g>
							</g>
						</g>
					</g>
					<g>
						<path class="st0" d="M82.1,182.7c-4.7,0.4-9.4,1.4-13.8,3.2c-1.1,0.4-2.1,0.9-3.1,1.4c-3.1,1.6-2.1,5.1-1.8,8.6l1.8,47.8
							l38.6-1l1.5-45.3c0.3-4.9-2.6-9.5-7.1-11.1c-5.1-1.8-11.2-3.8-13.9-3.9L82.1,182.7z"/>
						<line class="st21" x1="104.2" y1="213.9" x2="105.1" y2="199.9"/>
						<path class="st22" d="M95.9,185.6c0,0-7.1-2.8-11.6-3.2c0,0-6.2,0.3-10.5,1.6c0,0,2.4,5,13.2,5.9
							C98,190.7,95.9,185.6,95.9,185.6z"/>
					</g>
					<g>
						<g>
							<path class="st23" d="M128.8,208.8l-8.1,37.5c-0.3,1.3-1.4,2.2-2.7,2.2l-30-0.5c-1.7,0-3-1.7-2.6-3.4l8.4-37.5
								c0.3-1.3,1.4-2.2,2.7-2.2l29.6,0.5C127.9,205.5,129.2,207.1,128.8,208.8z"/>
							<polygon class="st23" points="128,206.2 129.7,208 87.7,248.8 85.8,246.8 							"/>
							<path class="st24" d="M130.4,210.4l-8.1,37.5c-0.3,1.3-1.4,2.2-2.7,2.2l-30-0.5c-1.7,0-3-1.7-2.6-3.4l8.4-37.5
								c0.3-1.3,1.4-2.2,2.7-2.2l29.6,0.5C129.5,207.1,130.8,208.7,130.4,210.4z"/>
							<path class="st25" d="M113.9,224.1c0.2,1.8-1.1,3.3-2.8,3.5c-1.8,0.2-3.3-1.1-3.5-2.8c-0.2-1.8,1.1-3.3,2.8-3.5
								C112.1,221.1,113.7,222.4,113.9,224.1z"/>
						</g>
						<path class="st22" d="M130.9,221.5l-2.3,9.1c-0.3,1.1-1.3,1.9-2.4,1.9l0,0c-3.4-0.1-5.9-3.2-5.3-6.5l0.6-3
							c0.5-2.4,2.5-4.3,5-4.4l1.8-0.1C130,218.4,131.3,219.9,130.9,221.5z"/>
					</g>
					<g>
						<g>
							<polygon class="st22" points="43.6,209.8 61.8,237.5 56.9,243 36.8,222.7 							"/>
							<path class="st22" d="M78.4,238.8l-7.8-4.1l0.8-1.8c0.3-0.6,0.1-1.4-0.4-1.8c-0.5-0.5-1.3-0.5-1.9,0l-7.6,6.2l-4.6,5.8
								c4.2,3.7,6.9,3.7,8.5,3c0.2,0.1,0.4,0.1,0.6,0.2l6.5,1.9c0.6,0.3,1.3,0,1.6-0.6c0.2-0.4,0.3-1.1-1-1.8l1.2,0.7
								c0.6,0.3,1.4,0,1.7-0.6c0.3-0.6-0.1-1.3-0.8-1.8l1,0.4c0.7,0.3,1.5,0,1.8-0.8c0.2-0.7-0.1-1.4-0.7-1.7l-1.4-0.7l1.6,0.4
								c0.8,0.3,1.6-0.1,1.8-1C79.4,239.8,79.1,239.1,78.4,238.8z"/>
							<line class="st26" x1="76.2" y1="241.3" x2="71.6" y2="239"/>
							<line class="st26" x1="74.9" y1="243.8" x2="70.5" y2="241.9"/>
							<line class="st26" x1="73.4" y1="245.9" x2="69.7" y2="244.4"/>
						</g>
						<g>
							<path class="st22" d="M69.1,202.1L46,222.8c-2.2,2.3-5.6,2.6-8.1,0.8l0,0c-3.2-2.2-3.7-6.9-1.2-9.9l21.7-22
								c2.6-3,7-3.4,10-0.8l0,0C71.8,193.7,72.1,198.9,69.1,202.1z"/>
							<g>
								<path class="st0" d="M69.6,185.3c0,0-9.3,1.9-20.8,16.2l9.9,13.2l15-11.2L69.6,185.3z"/>
								<line class="st21" x1="63.8" y1="210.9" x2="72.5" y2="204.5"/>
							</g>
						</g>
					</g>
				</g>
				<g>
					<path class="st27" d="M97.7,161.5c0.5,2,2.5,3.3,4.5,2.8c2-0.5,3.3-2.5,2.8-4.5c-0.5-2-2.5-3.3-4.5-2.8
						C98.5,157.4,97.2,159.4,97.7,161.5z"/>
					<polygon class="st22" points="91.9,170.7 91.6,185.4 80.5,184.5 83.3,160.5 					"/>
					<polygon class="st27" points="91.7,179.3 83.9,168.8 91.9,171.5 					"/>
					<path class="st22" d="M97.1,145.5c3.8,0.5,5.6,4.5,6,8.1c0.4,4.1,0.8,10.6-0.5,13.7c-2,4.9-6.2,7.7-12.6,6
						c0,0-7.5-0.9-8.6-12.2C80.2,147.8,89.1,144.5,97.1,145.5z"/>
					<g>
						<path class="st27" d="M100.9,159c0.1,0.5,0.5,0.8,1,0.7c0.5-0.1,0.8-0.5,0.7-1c-0.1-0.5-0.5-0.8-1-0.7
							C101.2,158.1,100.8,158.5,100.9,159z"/>
						<path class="st27" d="M93.7,159c0.1,0.5,0.5,0.8,1,0.7c0.5-0.1,0.8-0.5,0.7-1c-0.1-0.5-0.5-0.8-1-0.7
							C93.9,158.1,93.6,158.5,93.7,159z"/>
						<path class="st28" d="M99.3,159.9l0.8,2.8c0.1,0.3-0.1,0.5-0.4,0.6l-0.9,0.2"/>
						<path class="st29" d="M100.2,152.8c0,0-0.3,1,0.9,1.2c1,0.2,1.6,0.2,2.1,0.5c0.3,0.1,0.7,0,0.8-0.3l0,0c0.1-0.2,0.2-0.5,0-0.7
							c-0.3-0.5-0.9-1.2-2.1-1.4C100.5,151.9,100.2,152.8,100.2,152.8z"/>
						<path class="st29" d="M95.7,152.8c0,0,0.4,1-1.2,1.2c-1.2,0.1-2.7,0.6-3.4,0.8c-0.4,0.1-0.8,0-1.1-0.3l0,0
							c-0.2-0.2-0.2-0.5,0-0.7c0.4-0.4,1.9-1.5,3.5-1.7C95.4,151.9,95.7,152.8,95.7,152.8z"/>
						<path class="st28" d="M94.8,165.1c0,0,1.7,1.4,4.5,0.8"/>
					</g>
					<path class="st29" d="M84.6,163.2l1.7-8.2c0.4-1.9-0.2-3.5-0.7-5.8c7.2,0,15.8-0.1,15.8-0.8c0,0-2.1-8.2-15.5-5.9
						c-20.1,3.5-10.9,22.3-3.6,26.4L84.6,163.2z"/>
					<g>
						<path class="st22" d="M77.4,162.2c0.5,2.2,2.7,3.6,4.9,3.1c2.2-0.5,3.6-2.7,3.1-4.9c-0.5-2.2-2.7-3.6-4.9-3.1
							C78.2,157.8,76.9,160,77.4,162.2z"/>
						<path class="st30" d="M79.6,160c0,0,3.1-0.6,3.6,2.7"/>
					</g>
					<path class="st29" d="M85.6,149.1c0,0,19.6,2.4,19.3-3.8c-0.3-6.2-11.9-8.8-17-2.8L85.6,149.1z"/>
				</g>
			</g>
		</g>
	</g>
	<line class="st31" x1="6.9" y1="386.6" x2="499" y2="386.6"/>
</g>
</svg>
